<svg version="1.2" xmlns="http://www.w3.org/2000/svg" viewBox="0 0 2000 485" width="2000" height="485">
	<style>
		.s0 { fill: #fb2c36 } 
		.s1 { fill: #ffffff } 
	</style>
	<g id="Logo copy">
		<path id="Path 0" class="s0" d="m1638 2c-1.94 1.94-2 3.33-2 50v48c108.04 0 142.18 0.45 149.25 1.05 6.74 0.58 15.85 1.93 20.25 3 4.4 1.07 11.38 3.61 15.5 5.65 4.13 2.05 10.09 5.87 13.25 8.51 3.16 2.63 7.79 7.38 10.28 10.54 2.5 3.16 6.26 9.13 8.35 13.25 2.1 4.13 4.63 11.1 5.61 15.5 1.36 6.04 1.66 10.33 1.23 17.5-0.32 5.4-1.51 12.52-2.75 16.5-1.2 3.85-3.79 9.93-5.76 13.5-2.09 3.8-6.93 9.87-11.64 14.61-4.7 4.73-10.26 9.22-13.32 10.75-2.89 1.45-4.97 2.98-4.62 3.39 0.34 0.41 4.05 2.11 8.25 3.77 4.19 1.66 10.3 4.81 13.58 7 3.28 2.19 8.01 6.01 10.5 8.49 2.5 2.48 6.09 6.76 7.99 9.5 1.89 2.75 4.66 7.69 6.15 10.99 1.5 3.3 3.49 9.82 4.44 14.5 1.29 6.35 1.59 11.16 1.17 19-0.33 6.04-1.48 13.69-2.7 18-1.18 4.13-4.15 11.55-6.6 16.5-2.46 4.95-6.82 11.76-9.69 15.14-2.87 3.38-7.47 8-10.22 10.27-2.75 2.27-8.38 5.88-12.5 8.03-4.13 2.15-11.1 4.83-15.5 5.96-4.4 1.12-11.6 2.54-16 3.15-5.04 0.7-36.95 1.26-86.25 1.53l-78.25 0.42c0 93.67 0.06 95.06 2 97 1.99 1.99 3.33 2 180 2 176.67 0 178.01-0.01 180-2 1.99-1.99 2-3.33 2-240.5 0-237.17-0.01-238.51-2-240.5-1.99-1.99-3.33-2-180-2-176.67 0-178.01 0.01-180 2z"/>
		<path id="Path 1" class="s1" d="m99.5 94.95c-4.95 0.45-12.83 1.6-17.5 2.57-4.67 0.96-12.1 2.97-16.5 4.46-4.4 1.5-10.02 3.75-12.5 5.01-2.48 1.26-7.39 4.36-10.92 6.9-3.54 2.53-9.09 7.53-12.35 11.11-3.25 3.57-7.42 9.2-9.26 12.5-1.83 3.3-4.22 8.47-5.31 11.5-1.09 3.03-2.54 7.97-3.23 11-0.7 3.03-1.22 10.22-1.16 16 0.07 7.23 0.76 12.99 2.21 18.5 1.17 4.4 4 11.6 6.3 16 2.86 5.47 6.72 10.64 12.2 16.34 4.41 4.58 10.72 10.03 14.02 12.11 3.3 2.07 8.81 5.18 12.25 6.91 3.44 1.73 11.54 4.97 18 7.2 6.46 2.24 23.67 7.14 38.25 10.9 14.57 3.76 29.43 7.82 33 9.04 3.57 1.21 8.64 3.28 11.25 4.6 2.61 1.32 6.69 4.31 9.07 6.65 2.89 2.85 4.91 6.06 6.13 9.75 1.26 3.8 1.67 7.2 1.32 11-0.27 3.02-1.49 7.75-2.7 10.5-1.21 2.75-3.67 6.8-5.47 9-1.79 2.2-5.7 5.64-8.68 7.65-2.98 2-8.12 4.56-11.42 5.68-3.3 1.12-10.95 2.59-17 3.25-8.43 0.93-13.16 0.95-20.25 0.07-5.09-0.63-12.06-2.18-15.5-3.43-3.44-1.26-8.93-4.07-12.2-6.25-3.46-2.31-7.81-6.48-10.39-9.97-2.45-3.3-5.69-8.7-7.21-12-1.52-3.3-3.73-9.6-4.9-14-1.17-4.4-2.22-8.14-2.34-8.3-0.12-0.17-12.94 0.96-28.49 2.5l-28.28 2.8c1 6.98 1.94 11.93 2.73 15.5 0.8 3.57 2.26 9.2 3.26 12.5 1 3.3 3.36 9.38 5.25 13.5 1.89 4.13 5.41 10.43 7.82 14 2.41 3.57 6.88 9.14 9.94 12.37 3.06 3.22 8.26 7.8 11.56 10.17 3.3 2.36 8.7 5.65 12 7.3 3.3 1.65 9.15 4.13 13 5.52 3.85 1.39 11.5 3.49 17 4.67 7.86 1.68 14.81 2.26 32.5 2.68 17.96 0.43 24.62 0.21 33-1.1 5.78-0.9 14.78-2.79 20-4.19 5.22-1.4 12.88-4.13 17-6.05 4.12-1.93 10.2-5.44 13.5-7.8 3.3-2.37 8.71-7.17 12.03-10.69 3.31-3.51 8.02-9.75 10.45-13.88 2.44-4.12 5.9-11.77 7.7-17 2.01-5.84 3.7-13.36 4.38-19.5 0.8-7.21 0.81-12.51 0.03-19-0.59-4.95-1.77-11.7-2.62-15-0.85-3.3-2.91-8.93-4.57-12.5-1.66-3.57-5.58-9.85-8.71-13.94-3.13-4.09-9.06-10.1-13.19-13.35-4.12-3.26-12-8.15-17.5-10.87-5.5-2.73-16.07-6.91-23.5-9.3-7.43-2.38-22.95-6.68-34.5-9.55-11.55-2.87-24.83-6.46-29.5-7.97-4.67-1.52-11.42-4.2-15-5.95-3.58-1.76-8.2-4.85-10.27-6.88-2.08-2.03-4.44-5.15-5.25-6.94-0.81-1.79-1.48-5.72-1.48-8.75 0-3.43 0.72-6.91 1.9-9.25 1.05-2.06 2.96-4.69 4.25-5.84 1.29-1.15 3.93-3.04 5.85-4.2 1.92-1.16 6.2-3.03 9.5-4.17 3.3-1.13 10.5-2.55 16-3.16 7.04-0.78 12.81-0.81 19.5-0.09 5.22 0.57 11.97 1.88 15 2.93 3.03 1.05 7.64 3.34 10.25 5.09 2.61 1.76 5.82 4.65 7.14 6.44 1.31 1.79 3.56 5.61 5 8.5 1.43 2.89 3.21 7.84 3.95 11l1.34 5.75c26.21-0.28 39.45-0.67 46.32-1.04l12.5-0.67c-1.08-11.85-2.14-18.22-3.07-21.79-0.92-3.57-3.11-9.65-4.86-13.5-1.75-3.85-5.01-9.7-7.23-13-2.23-3.3-7.6-9.31-11.95-13.35-4.34-4.04-11.04-9.06-14.89-11.17-3.85-2.1-9.47-4.76-12.5-5.92-3.03-1.15-8.2-2.81-11.5-3.68-3.3-0.87-10.05-2.21-15-2.98-4.95-0.77-15.07-1.59-22.5-1.83-7.42-0.23-17.55-0.06-22.5 0.38zm1536.5 148.05v143c127.55-0.69 159.46-1.25 164.5-1.95 4.4-0.61 11.6-2.03 16-3.15 4.4-1.13 11.38-3.81 15.5-5.96 4.13-2.15 9.75-5.76 12.5-8.03 2.75-2.27 7.35-6.89 10.22-10.27 2.87-3.38 7.23-10.19 9.69-15.14 2.45-4.95 5.42-12.38 6.6-16.5 1.22-4.31 2.37-11.96 2.7-18 0.42-7.84 0.12-12.65-1.17-19-0.95-4.68-2.94-11.2-4.44-14.5-1.49-3.3-4.26-8.24-6.15-10.99-1.9-2.74-5.49-7.02-7.99-9.5-2.49-2.48-7.22-6.3-10.5-8.49-3.28-2.19-9.39-5.34-13.58-7-4.2-1.66-7.91-3.36-8.25-3.77-0.35-0.41 1.73-1.94 4.62-3.39 3.06-1.53 8.62-6.02 13.32-10.75 4.71-4.74 9.55-10.81 11.64-14.61 1.97-3.58 4.56-9.65 5.76-13.5 1.24-3.98 2.43-11.1 2.75-16.5 0.43-7.17 0.13-11.46-1.23-17.5-0.98-4.4-3.51-11.38-5.61-15.5-2.09-4.13-5.85-10.09-8.35-13.25-2.49-3.16-7.12-7.91-10.28-10.54-3.16-2.64-9.12-6.46-13.25-8.51-4.12-2.04-11.1-4.58-15.5-5.65-4.4-1.07-13.51-2.42-20.25-3-7.07-0.6-41.21-1.05-80.75-1.05h-68.5z"/>
		<path id="Path 2" class="s0" d="m1692 180v33c75.36 0.02 79.12-0.14 86.25-1.99 4.26-1.1 9.44-3.06 11.5-4.35 2.06-1.28 5.06-3.87 6.66-5.75 1.6-1.87 3.82-5.44 4.93-7.91 1.51-3.35 2.04-6.67 2.06-13 0.03-6.75-0.43-9.53-2.23-13.5-1.25-2.75-4.16-6.93-6.47-9.28-2.54-2.59-6.37-5.11-9.7-6.38-4.35-1.65-9.06-2.27-22.5-2.91-9.35-0.44-29.04-0.84-43.75-0.87l-26.75-0.06zm0 119.75v38.75c81.9-1.22 90.52-1.61 95.5-2.99 3.3-0.92 7.8-2.72 10-4 2.2-1.29 5.67-4.07 7.7-6.18 2.04-2.11 4.74-6.08 6-8.83 1.96-4.26 2.3-6.64 2.3-16 0-9.4-0.34-11.73-2.32-16-1.27-2.75-3.79-6.8-5.59-9-1.8-2.2-5.93-5.41-9.18-7.14-3.25-1.73-8.38-3.66-11.41-4.29-3.03-0.63-11.8-1.57-19.5-2.09-7.7-0.52-27.39-0.96-43.75-0.97l-29.75-0.01z"/>
		<path id="Path 3" fill-rule="evenodd" class="s1" d="m1340 94.14c1.38-0.08 8.35 0.33 15.5 0.9 7.15 0.58 17.28 1.99 22.5 3.12 5.22 1.14 13.33 3.4 18 5.04 4.67 1.64 12.1 4.92 16.5 7.29 4.4 2.37 11.6 6.97 16 10.23 4.4 3.26 11.31 9.49 15.37 13.85 4.05 4.36 9.41 10.86 11.91 14.43 2.5 3.57 6.7 10.78 9.33 16 2.63 5.22 5.88 12.88 7.22 17 1.34 4.12 3.37 11.78 4.5 17 1.13 5.22 2.56 13.55 3.17 18.5 0.61 4.95 1.11 16.43 1.11 25.5 0.01 9.07-0.48 20.55-1.07 25.5-0.6 4.95-1.75 12.38-2.56 16.5-0.82 4.12-2.86 11.77-4.53 17-1.68 5.23-4.79 13.1-6.92 17.5-2.12 4.4-6.2 11.6-9.07 16-2.88 4.42-9.73 12.5-15.33 18.07-5.57 5.53-13.5 12.28-17.63 14.98-4.13 2.7-10.42 6.38-14 8.18-3.58 1.8-10.55 4.6-15.5 6.23-4.95 1.63-12.15 3.64-16 4.47-3.85 0.83-10.49 1.97-14.75 2.54-4.26 0.57-13.94 1.02-21.5 1.01-7.56-0.01-18.25-0.66-23.75-1.45-5.5-0.78-13.15-2.17-17-3.07-3.85-0.9-10.6-2.96-15-4.58-4.4-1.62-11.83-5.01-16.5-7.54-4.67-2.53-12.1-7.39-16.5-10.8-4.4-3.42-11.15-9.71-15-13.98-3.85-4.28-9-10.77-11.44-14.42-2.44-3.65-6.55-11.14-9.13-16.64-2.58-5.5-5.84-13.82-7.23-18.5-1.4-4.68-3.23-12.1-4.08-16.5-0.85-4.4-2.08-12.73-2.72-18.5-0.73-6.49-0.96-17.38-0.61-28.5 0.35-11.07 1.35-22.43 2.59-29.5 1.11-6.32 3.2-15.55 4.65-20.5 1.44-4.95 4.19-12.38 6.11-16.5 1.92-4.13 5.11-10.2 7.1-13.5 1.98-3.3 6.4-9.6 9.81-14 3.42-4.4 9.3-10.95 13.08-14.56 3.78-3.6 9.79-8.61 13.37-11.13 3.58-2.52 9.65-6.15 13.5-8.07 3.85-1.92 12.06-5.12 18.25-7.12 6.19-1.99 14.51-4.11 18.5-4.71 3.99-0.6 11.75-1.43 17.25-1.85 5.5-0.42 11.13-0.83 12.5-0.92zm-23 54.34c-3.03 0.97-8.65 3.39-12.5 5.37-4.87 2.52-9.59 6.21-15.52 12.13-4.71 4.72-10.19 11.42-12.27 15.02-2.07 3.57-5.1 10.66-6.73 15.75-1.64 5.09-3.69 13.64-4.57 19-1 6.17-1.58 15.99-1.58 26.75 0 10.58 0.58 20.59 1.54 26.5 0.86 5.23 2.72 13.1 4.16 17.5 1.43 4.4 4.49 11.59 6.79 15.98 3.07 5.85 6.45 10.24 12.73 16.5 4.7 4.68 11 9.97 14 11.74 3 1.77 8.71 4.36 12.7 5.75 3.99 1.39 10.29 2.97 14 3.51 3.71 0.54 10.01 0.99 14 1 3.99 0.01 10.74-0.69 15-1.55 4.26-0.87 11.8-3.5 16.75-5.85 4.95-2.34 11.47-6.27 14.5-8.73 3.03-2.46 7.58-7.15 10.12-10.41 2.55-3.27 6.22-8.87 8.15-12.44 1.94-3.57 4.67-9.88 6.06-14 1.39-4.13 3.24-11.55 4.11-16.5 0.86-4.95 1.86-14.85 2.21-22 0.39-7.98 0.15-17.64-0.61-25-0.68-6.6-2.32-16.28-3.64-21.5-1.33-5.22-4.53-13.78-7.13-19-3.88-7.79-6.25-11.03-13.25-18.04-5.88-5.89-10.69-9.66-15.52-12.17-3.85-2-10.37-4.62-14.5-5.82-5.61-1.62-10.9-2.26-21-2.51-7.42-0.19-15.53 0.02-18 0.46-2.47 0.44-6.97 1.59-10 2.56zm-1055.99-49.49l228.49 0.51 0.5 48.5h-85v238h-59v-238h-85zm263.83 0.01h59.15l0.31 99.25c0.28 90.96 0.45 99.75 2.06 105.25 0.96 3.3 2.96 8.4 4.44 11.33 1.49 2.93 4.77 7.66 7.29 10.5 3.09 3.48 7 6.39 12 8.92 4.08 2.06 10.67 4.42 14.66 5.25 3.99 0.82 11.19 1.48 16 1.46 4.81-0.02 12.13-0.62 16.25-1.34 4.13-0.72 10.09-2.51 13.25-3.97 3.16-1.46 7.89-4.62 10.5-7.02 2.61-2.41 6.15-7.02 7.87-10.25 1.71-3.24 3.63-8.02 4.25-10.63 0.62-2.61 1.58-12.06 2.12-21 0.55-8.94 1-54.84 1.01-187.75h58l0.01 92.75c0 54.02-0.43 98.18-1.02 105.75-0.56 7.15-1.72 16.82-2.58 21.5-0.86 4.67-3 12.32-4.75 17-1.75 4.67-5.26 11.65-7.81 15.5-2.54 3.85-7.48 9.66-10.98 12.92-3.5 3.26-8.84 7.51-11.87 9.44-3.02 1.93-9.1 5.18-13.5 7.22-4.4 2.05-11.82 4.65-16.5 5.79-4.67 1.14-12.32 2.53-17 3.1-4.67 0.57-16.37 1.02-26 1-9.62-0.02-22.67-0.66-29-1.42-6.32-0.76-14.65-2.13-18.5-3.06-3.85-0.92-11.95-4.08-18-7.02-7.35-3.57-13.57-7.52-18.75-11.91-4.26-3.61-9.84-9.37-12.39-12.81-2.55-3.44-6.37-9.85-8.49-14.25-2.11-4.4-4.76-11.6-5.87-16-1.12-4.4-2.76-14.3-3.66-22-1.37-11.72-1.71-29.44-2.07-108.75zm357.17 0.25c56.59 0.37 68.06 0.69 77 2.14 5.77 0.95 14.55 3.07 19.5 4.73 4.95 1.66 11.92 4.55 15.5 6.43 3.57 1.88 10.1 6.28 14.5 9.77 4.4 3.5 10.42 9.25 13.38 12.77 2.96 3.53 7.21 9.11 9.44 12.41 2.24 3.3 5.95 10.05 8.27 15 2.31 4.95 5.39 12.6 6.84 17 1.45 4.4 3.51 12.27 4.57 17.5 1.05 5.22 2.44 14.9 3.08 21.5 0.69 7.17 0.96 20.45 0.65 33-0.32 13.16-1.14 24.54-2.21 30.5-0.93 5.22-2.84 13.55-4.24 18.5-1.4 4.95-4.19 12.82-6.21 17.5-2.01 4.67-5.5 11.65-7.74 15.5-2.25 3.85-6.81 10.37-10.14 14.5-3.33 4.12-8.22 9.32-10.88 11.56-2.65 2.23-7.06 5.58-9.81 7.45-2.75 1.86-8.6 5.05-13 7.08-4.4 2.03-11.38 4.83-15.5 6.23-4.13 1.4-12.57 3.25-18.75 4.11-9.28 1.29-22.76 1.57-142.25 1.57l-0.17-142.83c-0.1-85.58 0.2-143.14 0.75-143.59 0.5-0.42 30.84-0.56 67.42-0.33zm-9 237.75c46.88 0 64.32-0.48 69-1.07 4.67-0.59 11.87-2.38 16-3.97 4.39-1.7 9.94-4.88 13.39-7.68 3.66-2.98 7.35-7.23 9.77-11.28 2.13-3.58 4.98-9.88 6.33-14 1.36-4.13 3.12-10.65 3.93-14.5 0.81-3.85 1.98-14.2 2.61-23 0.65-9.03 0.86-21.89 0.49-29.5-0.36-7.43-1.26-17.78-2.01-23-0.74-5.23-2.47-12.88-3.84-17-1.37-4.13-4.14-10.43-6.15-14-2.01-3.58-5.99-8.89-8.84-11.82-2.85-2.93-7.88-6.83-11.18-8.69-3.3-1.85-9.38-4.32-13.5-5.48-6.12-1.72-12.04-2.28-32-3.02-13.48-0.5-28.89-0.93-34.25-0.95l-9.75-0.04zm229-238h59v287h-59z"/>
	</g>
</svg>