<svg version="1.2" xmlns="http://www.w3.org/2000/svg" viewBox="0 0 2142 485" width="2142" height="485">
	<style>
		.s0 { fill: #ffffff } 
	</style>
	<g id="Logo">
		<path id="STUDIO" fill-rule="evenodd" class="s0" d="m116 93.11c5.77-0.05 14.55 0.37 19.5 0.94 4.95 0.57 12.38 1.71 16.5 2.55 4.13 0.83 11.32 2.65 16 4.05 4.68 1.4 12.55 4.63 17.5 7.19 4.95 2.55 12.15 7.14 16 10.19 3.85 3.05 9.09 8.23 11.64 11.51 2.55 3.28 6.45 9.34 8.67 13.46 2.22 4.13 4.96 10.65 6.09 14.5 1.13 3.85 2.52 10.83 3.08 15.5 0.56 4.67 1.02 9.51 1.02 13l-61.5 0.02-1.25-7.01c-0.69-3.86-2.6-9.71-4.25-13.01-1.65-3.3-4.69-7.7-6.75-9.78-2.06-2.08-6.23-5.02-9.25-6.52-3.02-1.5-10-3.67-15.5-4.82-8.15-1.7-12.12-1.99-21.5-1.53-6.32 0.31-13.75 1.27-16.5 2.14-2.75 0.87-6.8 2.64-9 3.93-2.2 1.29-5.77 4.31-7.93 6.71-2.16 2.4-4.57 5.95-5.34 7.87-0.78 1.92-1.42 6.65-1.43 10.5-0.01 4.24 0.62 8.48 1.59 10.75 0.89 2.06 2.85 4.92 4.36 6.36 1.51 1.43 5.23 3.85 8.25 5.38 3.02 1.52 9.77 4.13 15 5.8 5.23 1.66 23.68 6.64 41 11.05 17.32 4.41 35.77 9.54 41 11.39 5.23 1.85 12.43 4.98 16 6.96 3.57 1.97 9.65 6.09 13.5 9.15 3.85 3.05 8.6 7.49 10.56 9.86 1.96 2.36 5.08 6.55 6.94 9.3 1.86 2.75 4.42 7.36 5.69 10.25 1.27 2.89 2.99 8.4 3.81 12.25 0.82 3.85 1.5 11.95 1.5 18 0 6.11-0.7 14.45-1.58 18.75-0.88 4.26-2.89 10.9-4.47 14.75-1.59 3.85-4.62 9.7-6.75 13-2.12 3.3-6.3 8.65-9.28 11.89-2.98 3.24-8.12 7.82-11.42 10.18-3.3 2.36-10.05 6.3-15 8.76-4.95 2.46-12.82 5.64-17.5 7.06-4.68 1.42-13.45 3.55-19.5 4.73-9.04 1.77-14.74 2.16-32 2.2-15.73 0.03-23.38-0.39-30.5-1.68-5.23-0.95-13.77-2.88-19-4.29-5.23-1.41-13.55-4.45-18.5-6.75-4.95-2.31-11.25-5.72-14-7.58-2.75-1.86-7.44-5.44-10.42-7.95-2.98-2.51-7.94-7.72-11.01-11.57-3.07-3.85-7.44-10.6-9.72-15-2.29-4.4-5.06-11.15-6.17-15-1.11-3.85-2.5-10.83-3.1-15.5-0.6-4.67-1.09-10.19-1.08-16h62l-0.01 3.25c-0.01 1.79 0.45 5.72 1.02 8.75 0.57 3.03 2.31 8.2 3.86 11.5 1.55 3.3 4.84 8.25 7.3 11 2.47 2.75 6.47 6.2 8.91 7.66 2.43 1.46 6.9 3.63 9.92 4.82 3.02 1.19 8.65 2.83 12.5 3.64 4.11 0.87 12.37 1.47 20 1.47 7.89 0 15.85-0.61 20.25-1.55 3.99-0.85 10.06-2.8 13.5-4.33 3.44-1.54 8.41-4.8 11.05-7.25 2.64-2.45 5.75-6.49 6.91-8.96 1.51-3.25 2.12-6.58 2.16-12 0.06-6.08-0.4-8.43-2.4-12.39-1.36-2.69-4.27-6.43-6.47-8.31-2.2-1.89-6.25-4.71-9-6.27-2.75-1.56-9.05-4.26-14-5.99-4.95-1.73-18.45-5.57-30-8.52-11.55-2.96-26.4-7.02-33-9.02-6.6-2.01-15.82-5.08-20.5-6.83-4.68-1.75-12.06-5.2-16.4-7.68-4.35-2.47-11.1-7.45-15-11.08-3.91-3.62-9.22-9.7-11.81-13.5-2.64-3.88-5.88-10.42-7.37-14.91-2.16-6.49-2.76-10.45-3.14-21-0.34-9.26-0.05-15.02 1-20 0.81-3.85 2.66-9.92 4.1-13.5 1.45-3.58 4.09-8.93 5.88-11.91 1.78-2.97 6.61-8.86 10.74-13.09 4.12-4.23 10.43-9.64 14-12.04 3.57-2.39 10.1-6.01 14.5-8.04 4.4-2.03 12.27-4.87 17.5-6.31 5.23-1.43 13.55-3.24 18.5-4.01 4.95-0.77 13.73-1.45 19.5-1.49zm1244.5 0.04c4.4-0.06 12.28 0.33 17.5 0.86 5.22 0.54 13.78 1.95 19 3.13 5.22 1.17 12.31 3.2 15.75 4.5 3.44 1.3 9.96 4.22 14.5 6.49 4.54 2.28 10.95 5.98 14.25 8.23 3.3 2.24 9.13 6.79 12.96 10.11 3.82 3.32 9.38 8.95 12.36 12.53 2.97 3.58 7.45 9.65 9.96 13.5 2.51 3.85 6.71 11.5 9.33 17 2.63 5.5 6.16 14.28 7.85 19.5 1.69 5.22 4.07 14.45 5.29 20.5 1.93 9.5 2.23 14.2 2.24 34.5 0.01 20.4-0.28 24.95-2.22 34.5-1.23 6.05-3.63 15.28-5.33 20.5-1.69 5.22-5.03 13.55-7.42 18.5-2.38 4.95-6.69 12.6-9.58 17-2.94 4.49-10.11 12.88-16.34 19.11-6.1 6.11-14.48 13.36-18.6 16.11-4.13 2.75-10.88 6.7-15 8.77-4.13 2.07-10.42 4.81-14 6.09-3.58 1.28-9.42 3.03-13 3.89-3.58 0.86-11.45 2.23-17.5 3.05-6.05 0.82-15.16 1.49-20.25 1.48-5.09 0-13.64-0.49-19-1.09-5.36-0.6-13.35-1.97-17.75-3.05-4.4-1.07-10.92-2.89-14.5-4.04-3.58-1.16-9.65-3.67-13.5-5.6-3.85-1.92-10.83-5.99-15.5-9.05-4.9-3.2-12.98-10.03-19.08-16.11-5.81-5.81-12.84-13.94-15.62-18.06-2.77-4.13-7.08-11.55-9.56-16.5-2.49-4.95-5.73-12.38-7.21-16.5-1.47-4.13-3.54-11.1-4.59-15.5-1.05-4.4-2.58-12.72-3.41-18.5-0.82-5.78-1.5-16.91-1.51-24.75-0.01-7.84 0.69-19.31 1.56-25.5 0.87-6.19 2.7-15.53 4.07-20.75 1.36-5.22 4.24-14 6.39-19.5 2.15-5.5 6.06-13.72 8.69-18.26 2.62-4.55 6.8-11.06 9.27-14.48 2.47-3.42 7.87-9.63 12-13.79 4.12-4.17 10.65-9.92 14.5-12.78 3.85-2.86 10.83-7.18 15.5-9.61 4.67-2.42 11.87-5.73 16-7.35 4.12-1.61 11.78-3.9 17-5.08 5.22-1.18 13.33-2.54 18-3.01 4.67-0.48 12.1-0.93 16.5-0.99zm-28.5 59.35c-3.58 1.5-8.75 4.22-11.5 6.03-2.75 1.82-7.52 5.93-10.59 9.14-3.08 3.21-7.18 8.3-9.12 11.33-1.93 3.03-4.89 8.65-6.56 12.5-1.68 3.85-3.76 9.47-4.62 12.5-0.86 3.03-2.26 9.55-3.12 14.5-0.99 5.69-1.56 15.08-1.57 25.5 0 10.5 0.57 19.77 1.57 25.5 0.86 4.95 2.51 11.92 3.66 15.5 1.16 3.58 4.06 10.33 6.46 15 2.4 4.67 6.39 11.09 8.88 14.25 2.48 3.16 7.1 7.79 10.26 10.29 3.16 2.49 8.9 6.1 12.75 8.01 3.85 1.91 10.37 4.17 14.5 5.02 4.12 0.84 12.45 1.53 18.5 1.53 6.25 0 14.46-0.71 19-1.64 4.93-1.01 11.06-3.23 15.98-5.8 5.46-2.85 10.38-6.53 15.61-11.66 4.82-4.74 9.34-10.45 12.26-15.5 2.55-4.4 5.97-12.28 7.61-17.5 1.64-5.22 3.65-13.33 4.46-18 0.82-4.67 1.77-12.33 2.12-17 0.35-4.67 0.11-14.13-0.54-21-0.64-6.88-2.42-17.45-3.95-23.5-1.54-6.05-4.12-13.92-5.73-17.5-1.62-3.58-4.77-9.2-7-12.5-2.23-3.3-7.15-8.93-10.94-12.5-4.33-4.1-9.66-7.88-14.38-10.21-4.13-2.03-10.2-4.44-13.5-5.34-3.5-0.96-11.21-1.79-18.5-2.01-8.08-0.24-14.8 0.1-19 0.98-3.58 0.74-9.42 2.58-13 4.08zm-1076-52.5h235v54h-86v232h-64v-232h-85zm264.92 0h64.08l0.28 99.25c0.27 96.04 0.34 99.46 2.28 105.75 1.1 3.58 3.17 8.53 4.59 11 1.43 2.47 5.24 6.94 8.47 9.92 3.24 2.98 8.58 6.64 11.88 8.13 3.3 1.49 8.48 3.23 11.5 3.88 3.02 0.64 12.02 1.16 20 1.15 10.93-0.01 16.35-0.49 22-1.93 4.12-1.05 9.75-3.05 12.5-4.44 2.75-1.4 6.88-4.49 9.18-6.88 2.31-2.38 5.3-6.58 6.67-9.33 1.36-2.75 3.18-7.47 4.04-10.5 0.86-3.03 2.02-9.55 2.58-14.5 0.61-5.42 1.02-45.29 1.03-191.5h62.81l-0.21 101.25c-0.19 99.67-0.23 101.39-2.34 110.25-1.18 4.95-3 11.47-4.06 14.5-1.05 3.03-3.36 8.42-5.14 12-1.77 3.58-5.16 9.2-7.53 12.5-2.36 3.3-7.17 8.74-10.67 12.1-3.5 3.35-8.84 7.68-11.86 9.61-3.03 1.94-8.42 4.99-12 6.8-3.58 1.8-10.21 4.56-14.75 6.13-4.54 1.57-13.54 3.85-20 5.05-9.8 1.83-15.32 2.19-33.25 2.18-15.34-0.01-24.22-0.48-31-1.65-5.23-0.9-13.55-2.82-18.5-4.26-4.95-1.44-12.38-4.18-16.5-6.1-4.13-1.93-10.42-5.45-14-7.84-3.58-2.38-8.53-6.1-11-8.26-2.48-2.16-6.82-7.04-9.66-10.85-2.83-3.8-6.73-10.06-8.66-13.91-1.92-3.85-4.49-9.92-5.69-13.5-1.2-3.58-3.13-10.78-4.27-16-2.02-9.21-2.1-12.55-2.44-109.75zm298.18-0.1l71.2 0.38c62.2 0.34 72.27 0.6 79.7 2.1 4.67 0.94 12.32 2.88 17 4.3 4.67 1.43 11.87 4.14 16 6.02 4.12 1.89 11.1 5.81 15.5 8.73 4.4 2.91 11.61 8.85 16.03 13.18 4.42 4.34 10.46 11.49 13.44 15.89 2.97 4.4 7.31 12.05 9.64 17 2.33 4.95 5.46 12.83 6.95 17.5 1.5 4.67 3.55 12.55 4.56 17.5 1.01 4.95 2.35 15.97 2.99 24.5 0.88 11.88 0.87 19-0.05 30.5-0.66 8.25-2.1 19.5-3.21 25-1.11 5.5-3.38 14.28-5.04 19.5-1.67 5.22-5.33 14-8.15 19.5-2.82 5.5-7.66 13.37-10.75 17.5-3.1 4.12-8.95 10.68-13.02 14.58-4.07 3.89-10.77 9.34-14.89 12.11-4.13 2.76-9.75 6.17-12.5 7.57-2.75 1.4-8.15 3.73-12 5.18-3.85 1.45-11.28 3.61-16.5 4.79-9.18 2.08-11.99 2.16-157 2.77zm63.9 233.1c51.79 0.02 61.76-0.37 68.25-1.49 4.81-0.83 11.34-2.47 14.5-3.64 3.16-1.18 8.67-4.04 12.25-6.38 3.57-2.33 8.35-6.43 10.62-9.12 2.27-2.68 5.54-7.12 7.28-9.87 1.73-2.75 4.49-8.49 6.13-12.75 1.63-4.26 3.68-11.01 4.54-15 0.87-3.99 1.83-13.55 2.13-21.25 0.32-8.24 0.05-18.53-0.66-25-0.66-6.05-2.3-15.28-3.64-20.5-1.34-5.23-4.3-13.33-6.57-18-3.15-6.5-5.8-10.16-11.23-15.54-4.46-4.43-9.7-8.39-14.1-10.68-3.85-2-11.05-4.87-16-6.38-8.85-2.7-9.54-2.75-41.16-3.17l-32.15-0.42zm232-233h64v286h-64z"/>
		<path id="Box" fill-rule="evenodd" class="s0" d="m1657 0h485v485h-485v-73.27c6.6 0.19 17.06 0.24 33.75 0.21q0.62 0 1.25 0v38.06h415v-415h-415v39.11c-17.83 0-28.43 0.03-35 0.2z"/>
		<path id="B" fill-rule="evenodd" class="s0" d="m1657 98.99l72.25 0.02c41.46 0 76.09 0.43 81.25 1.01 4.95 0.55 12.15 1.7 16 2.56 3.85 0.85 10.15 2.81 14 4.34 3.85 1.53 9.93 4.6 13.5 6.82 3.57 2.23 8.75 6.47 11.5 9.42 2.75 2.96 6.65 8.07 8.67 11.36 2.02 3.29 4.87 9.58 6.33 13.98 1.49 4.49 3.01 11.95 3.45 17 0.43 4.95 0.37 13.05-0.14 18-0.5 4.95-1.93 11.92-3.16 15.5-1.24 3.58-4.03 9.16-6.2 12.42-2.17 3.25-5.98 7.68-8.45 9.84-2.47 2.16-7.11 5.57-16.09 11.24l8.7 4.5c4.79 2.47 10.94 6.53 13.67 9 2.74 2.47 7.08 7.65 9.66 11.5 2.57 3.85 5.87 10.6 7.33 15 1.46 4.4 3.18 12.05 3.81 17 0.67 5.15 0.87 12.21 0.48 16.5-0.38 4.13-1.14 9.75-1.68 12.5-0.55 2.75-1.95 7.7-3.12 11-1.17 3.3-3.95 9.31-6.19 13.35-2.24 4.05-6.34 10.13-9.12 13.5-2.78 3.38-8.18 8.53-12 11.44-3.82 2.9-10.1 6.83-13.95 8.72-3.92 1.93-11.84 4.52-18 5.9-6.05 1.36-15.95 2.95-22 3.53-6.6 0.64-38.88 1.07-150.5 1.06v-144zm57 113.01c74.58 0.01 82.52-0.26 87.5-1.56 3.3-0.87 8.21-2.56 10.9-3.76 2.7-1.2 6.41-3.87 8.25-5.93 1.87-2.1 4.02-6.07 4.86-9 0.83-2.89 1.51-7.95 1.51-11.25 0-3.3-0.68-8.36-1.51-11.25-0.99-3.46-2.96-6.81-5.76-9.82-3.38-3.64-5.58-4.97-10.75-6.52-3.57-1.08-10.1-2.4-14.5-2.94-4.4-0.53-24.31-0.97-44.25-0.97h-36.25zm0.04 86.41l-0.04 38.59c69.95-0.06 81.42-0.42 87.5-1.52 4.4-0.79 10.42-2.69 13.38-4.21 2.95-1.53 6.89-4.46 8.75-6.52 1.85-2.06 4.23-5.44 5.27-7.5 1.04-2.06 2.44-6.45 3.11-9.75 0.67-3.3 1.03-9.6 0.81-14-0.3-5.96-1.07-9.41-3.02-13.5-1.44-3.03-4.23-6.96-6.21-8.75-1.97-1.79-5.39-4.15-7.59-5.25-2.2-1.1-6.59-2.74-9.75-3.64-4.8-1.38-12.87-1.72-48.89-2.11l-43.33-0.24z"/>
	</g>
</svg>